<svg xmlns="http://www.w3.org/2000/svg" version="1.1" xmlns:xlink="http://www.w3.org/1999/xlink" xmlns:svgjs="http://svgjs.com/svgjs" width="512" height="512" x="0" y="0" viewBox="0 0 138 134" style="enable-background:new 0 0 512 512" xml:space="preserve" class=""><g><path fill-rule="nonzero" d="M122.321 96.292H15.179c-7.221 0-13.096 6.171-13.096 13.758 0 7.583 5.875 13.758 13.096 13.758h107.142c7.221 0 13.096-6.175 13.096-13.758 0-7.588-5.875-13.758-13.096-13.758zm0-43.384H15.179c-7.221 0-13.096 6.171-13.096 13.759 0 7.583 5.875 13.758 13.096 13.758h107.142c7.221 0 13.096-6.175 13.096-13.758 0-7.588-5.875-13.759-13.096-13.759zM15.179 37.037l107.142.001c7.221 0 13.096-6.171 13.096-13.755 0-7.587-5.875-13.758-13.096-13.758H15.179c-7.221 0-13.096 6.171-13.096 13.758 0 7.584 5.875 13.755 13.096 13.755z" fill="#000000" data-original="#000000" class=""></path></g></svg>